<svg xmlns="http://www.w3.org/2000/svg" viewBox="0 0 48 48" role="img" aria-label="Career Peeler icon">
  <rect width="48" height="48" rx="10" fill="#1d1d1f"/>
  <path d="M12.5 24.8c0-7.3 4.8-13.3 11.2-13.3 3.2 0 5.8 1.2 7.6 3.2l-3.5 3.6c-1-1.2-2.2-1.9-4-1.9-3.5 0-5.7 3.3-5.7 8.2 0 5.1 2.4 8.3 5.9 8.3 2 0 3.3-.8 4.6-2.2l3.4 3.6c-2.1 2.4-4.7 3.6-8.2 3.6-6.8 0-11.3-5.5-11.3-13.1z" fill="#fff"/>
  <path d="M31.8 9.5h6.7v6.7h-6.7z" fill="#00a86b"/>
  <path d="M34 11.7h2.3V14H34z" fill="#fff" opacity=".9"/>
</svg>
